<?xml version="1.0" encoding="utf-8"?>
<!-- Generator: Adobe Illustrator 26.2.1, SVG Export Plug-In . SVG Version: 6.00 Build 0)  -->
<svg version="1.1"
	 id="SVGRoot" xmlns:cc="http://creativecommons.org/ns#" xmlns:dc="http://purl.org/dc/elements/1.1/" xmlns:inkscape="http://www.inkscape.org/namespaces/inkscape" xmlns:rdf="http://www.w3.org/1999/02/22-rdf-syntax-ns#" xmlns:sodipodi="http://sodipodi.sourceforge.net/DTD/sodipodi-0.dtd" xmlns:svg="http://www.w3.org/2000/svg"
	 xmlns="http://www.w3.org/2000/svg" xmlns:xlink="http://www.w3.org/1999/xlink" x="0px" y="0px" viewBox="0 0 250 250"
	 style="enable-background:new 0 0 250 250;" xml:space="preserve">
<style type="text/css">
	.st0{fill:#FFCCC3;}
	.st1{fill:#FFFFFF;}
	.st2{fill:#5BC5C4;}
	.st3{fill:#00CEF1;}
	.st4{fill:#004B7F;}
	.st5{fill:#D46C6C;}
	.st6{fill:#303030;}
	.st7{fill:#A04340;}
	.st8{fill:#FFB0A0;}
	.st9{fill:#006696;}
	.st10{opacity:0.22;clip-path:url(#SVGID_00000032622274304652709880000016482024152610773150_);}
	.st11{opacity:0.22;clip-path:url(#SVGID_00000013895991838978872870000015472667401714901934_);}
	.st12{opacity:0.22;clip-path:url(#SVGID_00000173121884476811498690000005298772971220362886_);}
	.st13{opacity:0.22;clip-path:url(#SVGID_00000137831853404826841080000015627745548663311517_);}
	.st14{opacity:0.22;clip-path:url(#SVGID_00000072248592373156482700000009638726572916480400_);}
	.st15{opacity:0.22;clip-path:url(#SVGID_00000150104891324154809310000013329676745623101328_);}
	.st16{opacity:0.22;clip-path:url(#SVGID_00000038396643481042599120000010712299687650309809_);}
	.st17{fill:#DFA7CC;}
</style>
<sodipodi:namedview  bordercolor="#666666" borderopacity="1.0" id="base" inkscape:current-layer="layer1" inkscape:cx="125" inkscape:cy="125" inkscape:document-units="px" inkscape:pageopacity="0.0" inkscape:pageshadow="2" inkscape:window-height="713" inkscape:window-maximized="1" inkscape:window-width="1299" inkscape:window-x="67" inkscape:window-y="27" inkscape:zoom="2.0149341" pagecolor="#ffffff" showgrid="false">
	</sodipodi:namedview>
<g id="layer1" inkscape:groupmode="layer" inkscape:label="Layer 1">
	<g id="g210" transform="matrix(1.4182543,0,0,-1.540036,109.12019,180.86132)">
		<path id="path212" inkscape:connector-curvature="0" class="st0" d="M0,0c0,0-36.3,0.8-57.8,52.6l-6.4-1.2c0,0,7.1-61.2,60.5-78.6
			L0,0z"/>
	</g>
	<g id="g214" transform="matrix(1.4182543,0,0,-1.540036,34.424433,101.06744)">
		<path id="path216" inkscape:connector-curvature="0" class="st0" d="M0,0c-4-2.2-8.8,4.4-5.9,7.4c3.6,3.5,3.6-3,6.5-1.5
			c2.9,1.5,0.2,6.5-2,7.3c-3.4,1.2-3.8,1.1-6.1-1c-0.5,5.9-2.9,14.1-5,10.9c-1.7-2.5,0.9-9.3,1.6-12.4c-0.7,1.2-4.1,9-6.2,6.8
			c-1.4-1.7,3.2-10.1,3.9-11.3c0,0,0,0,0,0c-0.6,0.4-1.1,0.8-1.3,0.9c-1.7,1-5.3,4.3-5.4,1c-0.1-3.3,5.7-6.6,8.6-8.5
			c0.4-1.4,1-2.5,2.1-3.1C-6-0.9-5.3-3.8-2-4.7c2.8-1,5.2,0.1,6,2.9C5.5,4.6-2.6,6.4,0,0"/>
	</g>
	<g id="g218" transform="matrix(1.4182543,0,0,-1.540036,196.73838,155.22666)">
		<path id="path220" inkscape:connector-curvature="0" class="st1" d="M2.7,9.2C5,8.5,22.1-22.6,31.8-52.5l-105.6,1
			c0,0,4.4,30.5,18,54.3L2.7,9.2z"/>
	</g>
	<g id="g222" transform="matrix(1.4182543,0,0,-1.540036,216.98439,193.72448)">
		<path id="path224" inkscape:connector-curvature="0" class="st2" d="M0,0c-0.7,1.4-1.4,2.8-2,4.1c-12.4,0-24.8-0.1-37.2,0.3
			c-13.1,0.5-26.2,2-39.3,2.5c-0.5-1.3-1.1-2.5-1.6-3.8c13-2,26.6-2.3,39.7-2.8C-27-0.2-13.5-0.5,0,0"/>
	</g>
	<g id="g226" transform="matrix(1.4182543,0,0,-1.540036,227.21695,218.60576)">
		<path id="path228" inkscape:connector-curvature="0" class="st3" d="M0,0c-0.5,1.1-0.9,2.2-1.4,3.3c-15,0-30,0.3-45,1
			c-10,0.5-20,1.1-30,1.8c-4.8,0.3-10,1.1-15.2,1.4c-0.4-1.1-0.7-2.2-1-3.3C-61.6,2.1-30.9,0.1,0,0"/>
	</g>
	<g id="g230" transform="matrix(1.4182543,0,0,-1.540036,164.3609,231.20727)">
		<path id="path232" inkscape:connector-curvature="0" class="st3" d="M0,0c-17.1-0.4-34.5-0.2-51.7-1.2c-0.3-1.2-0.5-2.4-0.7-3.4
			c17.5-0.1,35,1,52.4,1.4c16.2,0.4,32.3,0.9,48.5,0.7c-0.4,1.1-0.8,2.1-1.2,3.2C31.6,0.9,15.8,0.4,0,0"/>
	</g>
	<g id="g234" transform="matrix(1.4182543,0,0,-1.540036,205.63566,13.6673)">
		<path id="path236" inkscape:connector-curvature="0" class="st4" d="M0,0c2.3,2.5,6.5,3.4,9.2,1.4c1.8-1.3,2.7-3.6,4.6-4.7
			c1.6-0.9,3.7-0.8,5.4-1.5c2.5-1,4.1-3.9,3.5-6.5c-0.4-1.9-1.9-3.4-3.6-4.3c-1.7-0.9-3.7-1.2-5.6-1.2c-5-0.1-9.5,2.3-13.5,5.4
			C-3.7-8.5-3.1-3.4,0,0"/>
	</g>
	<g id="g238" transform="matrix(1.4182543,0,0,-1.540036,196.73838,26.244019)">
		<path id="path240" inkscape:connector-curvature="0" class="st3" d="M0,0c0,0,2.7,3.7,4.4,3.1C6,2.4,10-4.6,10-5.5
			c0-1.8-3.6-3.1-3.6-3.1L0,0z"/>
	</g>
	<g id="g242" transform="matrix(1.4182543,0,0,-1.540036,122.17677,93.967253)">
		<path id="path244" inkscape:connector-curvature="0" class="st0" d="M0,0c0,0-12.7,11.5-17.2,6.9C-21.7,2.4-12.8-6.6,0-3.1V0z"/>
	</g>
	<g id="g246" transform="matrix(1.4182543,0,0,-1.540036,115.1001,60.242148)">
		<path id="path248" inkscape:connector-curvature="0" class="st4" d="M0,0c0,0,2.2,25.1,38.5,28.3C74.7,31.5,75-19.8,75-19.8
			s-1-21.3-15.5-22.6L32.4-4.1L0,0z"/>
	</g>
	<g id="g250" transform="matrix(1.4182543,0,0,-1.540036,111.27183,103.25644)">
		<path id="path252" inkscape:connector-curvature="0" class="st0" d="M0,0c0,0-6.9,46.7,29.9,44.4C66.6,42,66.6,9,66.6,9
			C77.7-20.1,2.1-91.2,0,0"/>
	</g>
	<g id="g254" transform="matrix(1.4182543,0,0,-1.540036,205.73395,93.967253)">
		<path id="path256" inkscape:connector-curvature="0" class="st0" d="M0,0c0,0,12.7,11.5,17.2,6.9C21.7,2.4,12.8-6.6,0-3.1V0z"/>
	</g>
	<g id="g262" transform="matrix(1.4182543,0,0,-1.540036,126.41011,42.567162)">
		<path id="path264" inkscape:connector-curvature="0" class="st4" d="M0,0c2.1,1.1,4.6,0.8,6.9,0.1c2.2-0.7,4.3-1.9,6.5-2.8
			c4.6-1.8,9.6-2.1,14.4-1c3.1,0.7,6.2,2.1,9.4,2c2.8-0.1,5.5-1.3,8.1-2.4C48.2-5.3,51.1-6.6,54-8c-4.8,7.2-12,12.8-20.2,15.5
			c-8.2,2.8-17.3,2.7-25.5-0.1c-3.4-1.2-6.8-3-8.9-5.9"/>
	</g>
	<g id="g266" transform="matrix(1.4182543,0,0,-1.540036,148.42909,110.61674)">
		<path id="path268" inkscape:connector-curvature="0" class="st0" d="M0,0v17.6L-4.5,8l-1.8-5.4L-6-2.2l1.8-1.4l2.2,1L0,0z"/>
	</g>
	<g id="g270" transform="matrix(1.4182543,0,0,-1.540036,150.35975,80.494244)">
		<path id="path272" inkscape:connector-curvature="0" class="st5" d="M0,0c-1.4-2.9-2.8-5.9-4-8.9c-0.9-2.2-2.1-4.3-2.9-6.5
			c-0.7-2.1-1.1-5.4,1.2-6.7c0.1-0.1,0.3-0.1,0.4-0.1c0.1,0,0.9,0.4,1,0.4c0.9,0.7,1.6,1.6,2.4,2.4c0.2,0.2,0.6,0.4,0.8,0.1
			c0.1-0.2,0-0.4-0.1-0.5c-0.6-1.2-1.5-2.2-2.5-3.1c-0.7-0.6-1.6-1-2.5-0.9c-0.9,0.1-1.6,0.9-1.9,1.7c-1.3,3.1,0.3,6.6,1.3,9.6
			C-5.1-8-2.9-3.8-0.8,0.4C-0.5,0.9,0.2,0.5,0,0"/>
	</g>
	<g id="g274" transform="matrix(1.4182543,0,0,-1.540036,166.46332,85.412811)">
		<path id="path276" inkscape:connector-curvature="0" class="st6" d="M0,0c0.3-0.9-0.2-1.8-1.1-2.1s-1.5,0.3-1.8,1.2
			c-0.3,0.9,0.1,1.8,1,2.1C-0.9,1.4-0.3,0.9,0,0"/>
	</g>
	<g id="g278" transform="matrix(1.4182543,0,0,-1.540036,137.60795,87.646945)">
		<path id="path280" inkscape:connector-curvature="0" class="st6" d="M0,0c-0.6-0.7-1.8-0.7-2.5-0.1c-0.7,0.6-0.4,1.3,0.2,2
			s1.7,0.8,2.4,0.1C0.9,1.4,0.6,0.7,0,0"/>
	</g>
	<g id="g282" transform="matrix(1.4182543,0,0,-1.540036,172.16258,77.550311)">
		<path id="path284" inkscape:connector-curvature="0" class="st4" d="M2.1,0.5C1,0.9,0,1.3-1,1.9c-1,0.5-2.7-0.2-2.9,1
			C-4,3.3-3.8,4-3.3,4.2c1.3,0.5,3.6,0.7,4.7,0c1.1-0.6,1.9-1.6,2.8-2.4c3.7,0.6,0.5-2.1-0.6-1.7"/>
	</g>
	<g id="g286" transform="matrix(1.4182543,0,0,-1.540036,134.85171,70.614914)">
		<path id="path288" inkscape:connector-curvature="0" class="st4" d="M0,0c1.5,0.4,3.2,0.7,4.7,0.5c1.6-0.2,1.6-2.8,0-3
			C3.2-2.8-2.6-2.4-4.2-2.1C-5.3-1.8-1.2-0.3,0,0"/>
	</g>
	<g id="g290" transform="matrix(1.4182543,0,0,-1.540036,155.40122,133.58346)">
		<path id="path292" inkscape:connector-curvature="0" class="st7" d="M0,0c2,1.1,3.4,3.2,3.5,5.3c0,0.3,0,0.6-0.1,0.9
			C2.9,7.2,1.7,7.5,0.7,7.4c-1-0.1-2-0.6-3-0.9c-1.2-0.3-2.5-0.3-3.6,0C-6.7,6.7-7.3,7-8,7.1c-0.7,0.1-1.5,0-2-0.5
			c-0.5-0.5-0.6-1.2-0.6-1.9C-10.5-0.6-4.5-2.5,0,0"/>
	</g>
	<g id="g294" transform="matrix(1.4182543,0,0,-1.540036,174.09197,100.63283)">
		<path id="path296" inkscape:connector-curvature="0" class="st8" d="M0,0c-0.2-1.1-2.1-1.7-4.3-1.3C-6.5-0.9-8.2,0.2-8,1.3
			c0.2,1.1,3.1,1.5,5.3,1.1C-0.5,2.1,0.2,1.1,0,0"/>
	</g>
	<g id="g298" transform="matrix(1.4182543,0,0,-1.540036,123.27095,98.958194)">
		<path id="path300" inkscape:connector-curvature="0" class="st8" d="M0,0c0.2,1.1,2.1,1.7,4.3,1.4C6.5,1,8.2-0.1,8-1.2
			C7.9-2.2,4.9-2.7,2.7-2.4C0.5-2.1-0.2-1.1,0,0"/>
	</g>
	<g id="g302" transform="matrix(1.4182543,0,0,-1.540036,137.22005,39.577178)">
		<path id="path304" inkscape:connector-curvature="0" class="st9" d="M0,0c3,2.6,5.6,5.6,9,7.6c3.7,2.2,7.8,2.9,11.8,4
			c0.2,0.1,0.1,0.3-0.1,0.3c-9-1.3-14.8-5.3-21.1-11.6C-0.6,0.1-0.2-0.2,0,0"/>
	</g>
	<g id="g306" transform="matrix(1.4182543,0,0,-1.540036,149.72536,41.142159)">
		<path id="path308" inkscape:connector-curvature="0" class="st9" d="M0,0c7.5,7,15.8,10.6,25.8,12.6c0.1,0,0.1,0.3,0,0.3
			C15.9,12.4,6.4,7.4-0.3,0.3C-0.5,0.1-0.2-0.2,0,0"/>
	</g>
	<g id="g310" transform="matrix(1.4182543,0,0,-1.540036,164.5118,45.308734)">
		<path id="path312" inkscape:connector-curvature="0" class="st9" d="M0,0c6.6,5.1,13.6,7.9,21.4,10.5c0.2,0.1,0.1,0.4-0.1,0.4
			C13.3,9.6,5.8,5.3-0.3,0.3C-0.5,0.1-0.2-0.2,0,0"/>
	</g>
	<g id="g314" transform="matrix(1.4182543,0,0,-1.540036,187.2426,43.760536)">
		<path id="path316" inkscape:connector-curvature="0" class="st9" d="M0,0c3.1,1.5,6.8,3.6,8.8,6.6C8.9,6.8,8.6,7.1,8.4,7
			C7,5.9,5.8,4.6,4.5,3.5C3,2.4,1.4,1.4-0.3,0.5C-0.6,0.3-0.3-0.2,0,0"/>
	</g>
	<g id="g318" transform="matrix(1.4182543,0,0,-1.540036,199.89059,52.736782)">
		<path id="path320" inkscape:connector-curvature="0" class="st9" d="M0,0c2.3,1.4,4.9,4,5.2,6.9c0,0.3-0.4,0.4-0.5,0.1
			C4.1,5.9,3.7,4.7,3,3.6C2.1,2.4,1,1.3-0.3,0.4C-0.5,0.3-0.3-0.2,0,0"/>
	</g>
	<g id="g322" transform="matrix(1.4182543,0,0,-1.540036,205.99291,64.872732)">
		<path id="path324" inkscape:connector-curvature="0" class="st9" d="M0,0c1.8,2,4,4.6,4.5,7.3c0,0.2-0.3,0.4-0.4,0.2
			C3.4,6.4,2.9,5.1,2.2,4C1.5,2.7,0.6,1.5-0.4,0.4C-0.6,0.1-0.2-0.3,0,0"/>
	</g>
	<g id="g326" transform="matrix(1.4182543,0,0,-1.540036,212.4569,79.240658)">
		<path id="path328" inkscape:connector-curvature="0" class="st9" d="M0,0c1.4,2,2.7,4.5,2.9,7c0,0.2-0.4,0.3-0.4,0.1
			C1.8,4.6,1.1,2.4-0.4,0.2C-0.6,0-0.2-0.2,0,0"/>
	</g>
	<g id="g362" transform="matrix(1.4182543,0,0,-1.540036,202.89332,109.56165)">
		<path id="path364_00000065045441714698293940000000667595659555567002_" inkscape:connector-curvature="0" class="st9" d="M0,0"/>
		<path id="path364_00000090269929353550282040000003797534114478480031_" inkscape:connector-curvature="0" class="st9" d="M0,0
			c0.4-0.5,0.7-1,0.9-1.6C1-2.2,0.9-2.8,1-3.4c0.1-0.3,0.4-0.3,0.6-0.1"/>
	</g>
	<g id="g434" transform="matrix(1.4182543,0,0,-1.540036,98.549789,177.71057)">
		<path id="path436_00000157302903060161176610000007131997829326235309_" inkscape:connector-curvature="0" class="st9" d="M0,0"/>
	</g>
	<g id="g490" transform="matrix(1.4182543,0,0,-1.540036,212.37095,107.95694)">
		<path id="path492" inkscape:connector-curvature="0" class="st9" d="M0,0c0.9,0.3,1.6,0.7,2.2,1.4c0.5,0.5,1.3,1.3,1.1,2
			c0,0.1-0.2,0.2-0.3,0.2C2.5,3.3,2.1,2.5,1.7,2C1.1,1.4,0.5,0.9-0.2,0.5C-0.4,0.3-0.3-0.1,0,0"/>
	</g>
	<g id="g494" transform="matrix(1.4182543,0,0,-1.540036,209.30865,21.104288)">
		<path id="path496" inkscape:connector-curvature="0" class="st9" d="M0,0c0.9,0.7,1.9,1.3,2.9,1.8C4.1,2.3,5.3,2.5,6.5,3
			c0.3,0.1,0.3,0.6-0.1,0.6C4,3.7,1.3,2-0.3,0.4C-0.5,0.2-0.2-0.2,0,0"/>
	</g>
	<g id="g498" transform="matrix(1.4182543,0,0,-1.540036,209.82249,24.650683)">
		<path id="path500" inkscape:connector-curvature="0" class="st9" d="M0,0c3.1,0.2,7,0.5,9.6,2.3c0.2,0.1,0.1,0.4-0.2,0.4
			C7.9,2.5,6.5,1.9,5.1,1.5C3.4,1.1,1.7,0.8,0,0.7C-0.4,0.6-0.4,0,0,0"/>
	</g>
	<g id="g502" transform="matrix(1.4182543,0,0,-1.540036,210.97624,29.300059)">
		<path id="path504" inkscape:connector-curvature="0" class="st9" d="M0,0c4.4-0.7,9.4-0.7,13.5,1.3c0.3,0.2,0.1,0.6-0.2,0.5
			C8.8,0.9,4.8,0,0.2,0.7C-0.3,0.8-0.5,0.1,0,0"/>
	</g>
	<g id="g506" transform="matrix(1.4182543,0,0,-1.540036,221.76419,204.91839)">
		<path id="path508" inkscape:connector-curvature="0" class="st0" d="M0,0l-19.2-8.5l6.8-20.7l23.9-0.2C11.5-29.4,5.9-10.5,0,0"/>
	</g>
	<g id="g1096" transform="matrix(1.4182543,0,0,-1.540036,-204.47667,535.8441)">
		<g id="g1098">
		</g>
		<g id="g1110">
			<g>
				<defs>
					<rect id="SVGID_1_" x="212.6" y="273.8" width="2.3" height="1.7"/>
				</defs>
				<clipPath id="SVGID_00000031190182207098992570000009527704445728194990_">
					<use xlink:href="#SVGID_1_"  style="overflow:visible;"/>
				</clipPath>
				<g id="g1108" style="opacity:0.22;clip-path:url(#SVGID_00000031190182207098992570000009527704445728194990_);">
					<g id="g1106" transform="translate(214.0371,275.1694)">
						<path id="path1104" inkscape:connector-curvature="0" class="st6" d="M0,0c-0.4,0-0.7,0-1-0.3c-0.2-0.1-0.2-0.4,0-0.6
							c0.3-0.3,0.6-0.2,1-0.3C0.7-1.2,0.7,0.1,0,0"/>
					</g>
				</g>
			</g>
		</g>
	</g>
	<g id="g1112" transform="matrix(1.4182543,0,0,-1.540036,-204.47667,535.8441)">
		<g id="g1114">
		</g>
		<g id="g1126">
			<g>
				<defs>
					<rect id="SVGID_00000008835331840824279810000010738729376172727981_" x="208.2" y="268.3" width="1.5" height="1.7"/>
				</defs>
				<clipPath id="SVGID_00000077308737643877230230000006393885036258196626_">
					<use xlink:href="#SVGID_00000008835331840824279810000010738729376172727981_"  style="overflow:visible;"/>
				</clipPath>
				<g id="g1124" style="opacity:0.22;clip-path:url(#SVGID_00000077308737643877230230000006393885036258196626_);">
					<g id="g1122" transform="translate(208.9531,268.6387)">
						<path id="path1120" inkscape:connector-curvature="0" class="st6" d="M0,0c0.7,0,0.7,1.1,0,1.1C-0.7,1.1-0.7,0,0,0"/>
					</g>
				</g>
			</g>
		</g>
	</g>
	<g id="g1208" transform="matrix(1.4182543,0,0,-1.540036,-204.47667,535.8441)">
		<g id="g1210">
		</g>
		<g id="g1222">
			<g>
				<defs>
					<rect id="SVGID_00000151502657146405731220000013531559027396316308_" x="283.8" y="288.8" width="1.4" height="1.6"/>
				</defs>
				<clipPath id="SVGID_00000023980836669016304660000007668506307477163923_">
					<use xlink:href="#SVGID_00000151502657146405731220000013531559027396316308_"  style="overflow:visible;"/>
				</clipPath>
				<g id="g1220" style="opacity:0.22;clip-path:url(#SVGID_00000023980836669016304660000007668506307477163923_);">
					<g id="g1218" transform="translate(284.5391,289.0283)">
						<path id="path1216" inkscape:connector-curvature="0" class="st6" d="M0,0c0.6,0,0.6,1,0,1C-0.6,1-0.6,0,0,0"/>
					</g>
				</g>
			</g>
		</g>
	</g>
	<g id="g1224" transform="matrix(1.4182543,0,0,-1.540036,-204.47667,535.8441)">
		<g id="g1226">
		</g>
		<g id="g1238">
			<g>
				<defs>
					<rect id="SVGID_00000075849407307979076690000009290906000395240576_" x="281.5" y="294.2" width="1.4" height="1.6"/>
				</defs>
				<clipPath id="SVGID_00000160869184767825127500000006135180914892627626_">
					<use xlink:href="#SVGID_00000075849407307979076690000009290906000395240576_"  style="overflow:visible;"/>
				</clipPath>
				<g id="g1236" style="opacity:0.22;clip-path:url(#SVGID_00000160869184767825127500000006135180914892627626_);">
					<g id="g1234" transform="translate(282.166,294.4399)">
						<path id="path1232" inkscape:connector-curvature="0" class="st6" d="M0,0c0.7,0,0.7,1,0,1C-0.7,1-0.7,0,0,0"/>
					</g>
				</g>
			</g>
		</g>
	</g>
	<g id="g1240" transform="matrix(1.4182543,0,0,-1.540036,-204.47667,535.8441)">
		<g id="g1242">
		</g>
		<g id="g1254">
			<g>
				<defs>
					<rect id="SVGID_00000016764375452256571960000007505261817945946266_" x="296.7" y="200.9" width="1.5" height="1.6"/>
				</defs>
				<clipPath id="SVGID_00000175314930014119581510000005833760265507386303_">
					<use xlink:href="#SVGID_00000016764375452256571960000007505261817945946266_"  style="overflow:visible;"/>
				</clipPath>
				<g id="g1252" style="opacity:0.22;clip-path:url(#SVGID_00000175314930014119581510000005833760265507386303_);">
					<g id="g1250" transform="translate(297.4189,201.2119)">
						<path id="path1248" inkscape:connector-curvature="0" class="st6" d="M0,0c0.7,0,0.7,1.1,0,1.1S-0.7,0,0,0"/>
					</g>
				</g>
			</g>
		</g>
	</g>
	<g id="g1256" transform="matrix(1.4182543,0,0,-1.540036,-204.47667,535.8441)">
		<g id="g1258">
		</g>
		<g id="g1270">
			<g>
				<defs>
					<rect id="SVGID_00000091736727373115644690000006090519589135560832_" x="301.5" y="196.3" width="1.3" height="1.5"/>
				</defs>
				<clipPath id="SVGID_00000095301537658742227510000011596707174848396676_">
					<use xlink:href="#SVGID_00000091736727373115644690000006090519589135560832_"  style="overflow:visible;"/>
				</clipPath>
				<g id="g1268" style="opacity:0.22;clip-path:url(#SVGID_00000095301537658742227510000011596707174848396676_);">
					<g id="g1266" transform="translate(302.1641,196.5127)">
						<path id="path1264" inkscape:connector-curvature="0" class="st6" d="M0,0c0.6,0,0.6,1,0,1C-0.6,1-0.6,0,0,0"/>
					</g>
				</g>
			</g>
		</g>
	</g>
	<g id="g1272" transform="matrix(1.4182543,0,0,-1.540036,-204.47667,535.8441)">
		<g id="g1274">
		</g>
		<g id="g1286">
			<g>
				<defs>
					<rect id="SVGID_00000143578460419582521620000016695894756214026881_" x="300.1" y="205.4" width="0.1" height="0.1"/>
				</defs>
				<clipPath id="SVGID_00000101792869898869940910000010996681739867182265_">
					<use xlink:href="#SVGID_00000143578460419582521620000016695894756214026881_"  style="overflow:visible;"/>
				</clipPath>
				<g id="g1284" style="opacity:0.22;clip-path:url(#SVGID_00000101792869898869940910000010996681739867182265_);">
					<g id="g1282" transform="translate(300.1299,205.4482)">
						<path id="path1280" inkscape:connector-curvature="0" class="st6" d="M0,0C0,0,0,0,0,0C0,0,0,0,0,0"/>
					</g>
				</g>
			</g>
		</g>
	</g>
</g>
<polygon class="st17" points="128.7,166 109.1,172.5 103.4,177.7 105.6,182.9 129,182.9 143.3,182.9 160.3,182.9 186.6,187.4 
	198.4,180.2 191,172.5 160.3,168.7 148.4,172.5 139.5,171.8 "/>
</svg>
