<?xml version="1.0" encoding="utf-8"?>
<!-- Generator: Adobe Illustrator 26.2.1, SVG Export Plug-In . SVG Version: 6.00 Build 0)  -->
<svg version="1.1"
	 id="SVGRoot" xmlns:cc="http://creativecommons.org/ns#" xmlns:dc="http://purl.org/dc/elements/1.1/" xmlns:inkscape="http://www.inkscape.org/namespaces/inkscape" xmlns:rdf="http://www.w3.org/1999/02/22-rdf-syntax-ns#" xmlns:sodipodi="http://sodipodi.sourceforge.net/DTD/sodipodi-0.dtd" xmlns:svg="http://www.w3.org/2000/svg"
	 xmlns="http://www.w3.org/2000/svg" xmlns:xlink="http://www.w3.org/1999/xlink" x="0px" y="0px" viewBox="0 0 250 250"
	 style="enable-background:new 0 0 250 250;" xml:space="preserve">
<style type="text/css">
	.st0{fill:#FFCCC3;}
	.st1{fill:#004B7F;}
	.st2{fill:#00CEF1;}
	.st3{fill:#D46C6C;}
	.st4{fill:#303030;}
	.st5{fill:#A04340;}
	.st6{fill:#FFB0A0;}
	.st7{fill:#006696;}
	.st8{opacity:0.22;clip-path:url(#SVGID_00000072269358054962272250000000678188129923481997_);}
	.st9{opacity:0.22;clip-path:url(#SVGID_00000011016725595307126970000006315352425849085873_);}
	.st10{opacity:0.22;clip-path:url(#SVGID_00000167380520225388881370000017517192720433653400_);}
	.st11{opacity:0.22;clip-path:url(#SVGID_00000050661091804745293060000008110581347711908498_);}
	.st12{opacity:0.22;clip-path:url(#SVGID_00000049915950193952835190000002296441193270421689_);}
	.st13{fill:#DFA7CC;}
</style>
<sodipodi:namedview  bordercolor="#666666" borderopacity="1.0" id="base" inkscape:current-layer="layer1" inkscape:cx="125" inkscape:cy="125" inkscape:document-units="px" inkscape:pageopacity="0.0" inkscape:pageshadow="2" inkscape:window-height="713" inkscape:window-maximized="1" inkscape:window-width="1299" inkscape:window-x="67" inkscape:window-y="27" inkscape:zoom="2.0149341" pagecolor="#ffffff" showgrid="false">
	</sodipodi:namedview>
<g id="layer1" inkscape:groupmode="layer" inkscape:label="Layer 1">
	<g id="g210" transform="matrix(1.4182543,0,0,-1.540036,109.12019,180.86132)">
		<path id="path212" inkscape:connector-curvature="0" class="st0" d="M0,0c0,0-36.3,0.8-57.8,52.6l-6.4-1.2c0,0,7.1-61.2,60.5-78.6
			L0,0z"/>
	</g>
	<g id="g214" transform="matrix(1.4182543,0,0,-1.540036,34.424433,101.06744)">
		<path id="path216" inkscape:connector-curvature="0" class="st0" d="M0,0c-4-2.2-8.8,4.4-5.9,7.4c3.6,3.5,3.6-3,6.5-1.5
			s0.2,6.5-2,7.3c-3.4,1.2-3.8,1.1-6.1-1c-0.5,5.9-2.9,14.1-5,10.9c-1.7-2.5,0.9-9.3,1.6-12.4c-0.7,1.2-4.1,9-6.2,6.8
			c-1.4-1.7,3.2-10.1,3.9-11.3l0,0c-0.6,0.4-1.1,0.8-1.3,0.9c-1.7,1-5.3,4.3-5.4,1s5.7-6.6,8.6-8.5c0.4-1.4,1-2.5,2.1-3.1
			C-6-0.9-5.3-3.8-2-4.7c2.8-1,5.2,0.1,6,2.9C5.5,4.6-2.6,6.4,0,0"/>
	</g>
	<g id="g234" transform="matrix(1.4182543,0,0,-1.540036,205.63566,13.6673)">
		<path id="path236" inkscape:connector-curvature="0" class="st1" d="M0,0c2.3,2.5,6.5,3.4,9.2,1.4c1.8-1.3,2.7-3.6,4.6-4.7
			c1.6-0.9,3.7-0.8,5.4-1.5c2.5-1,4.1-3.9,3.5-6.5c-0.4-1.9-1.9-3.4-3.6-4.3s-3.7-1.2-5.6-1.2C8.5-16.9,4-14.5,0-11.4
			C-3.7-8.5-3.1-3.4,0,0"/>
	</g>
	<g id="g238" transform="matrix(1.4182543,0,0,-1.540036,196.73838,26.244019)">
		<path id="path240" inkscape:connector-curvature="0" class="st2" d="M0,0c0,0,2.7,3.7,4.4,3.1C6,2.4,10-4.6,10-5.5
			c0-1.8-3.6-3.1-3.6-3.1L0,0z"/>
	</g>
	<g id="g242" transform="matrix(1.4182543,0,0,-1.540036,122.17677,93.967253)">
		<path id="path244" inkscape:connector-curvature="0" class="st0" d="M0,0c0,0-12.7,11.5-17.2,6.9C-21.7,2.4-12.8-6.6,0-3.1V0z"/>
	</g>
	<g id="g246" transform="matrix(1.4182543,0,0,-1.540036,115.1001,60.242148)">
		<path id="path248" inkscape:connector-curvature="0" class="st1" d="M0,0c0,0,2.2,25.1,38.5,28.3C74.7,31.5,75-19.8,75-19.8
			s-1-21.3-15.5-22.6L32.4-4.1L0,0z"/>
	</g>
	<g id="g250" transform="matrix(1.4182543,0,0,-1.540036,111.27183,103.25644)">
		<path id="path252" inkscape:connector-curvature="0" class="st0" d="M0,0c0,0-6.9,46.7,29.9,44.4C66.6,42,66.6,9,66.6,9
			C77.7-20.1,2.1-91.2,0,0"/>
	</g>
	<g id="g254" transform="matrix(1.4182543,0,0,-1.540036,205.73395,93.967253)">
		<path id="path256" inkscape:connector-curvature="0" class="st0" d="M0,0c0,0,12.7,11.5,17.2,6.9C21.7,2.4,12.8-6.6,0-3.1V0z"/>
	</g>
	<g id="g262" transform="matrix(1.4182543,0,0,-1.540036,126.41011,42.567162)">
		<path id="path264" inkscape:connector-curvature="0" class="st1" d="M0,0c2.1,1.1,4.6,0.8,6.9,0.1c2.2-0.7,4.3-1.9,6.5-2.8
			c4.6-1.8,9.6-2.1,14.4-1c3.1,0.7,6.2,2.1,9.4,2C40-1.8,42.7-3,45.3-4.1C48.2-5.3,51.1-6.6,54-8C49.2-0.8,42,4.8,33.8,7.5
			c-8.2,2.8-17.3,2.7-25.5-0.1c-3.4-1.2-6.8-3-8.9-5.9"/>
	</g>
	<g id="g266" transform="matrix(1.4182543,0,0,-1.540036,148.42909,110.61674)">
		<path id="path268" inkscape:connector-curvature="0" class="st0" d="M0,0v17.6L-4.5,8l-1.8-5.4L-6-2.2l1.8-1.4l2.2,1L0,0z"/>
	</g>
	<g id="g270" transform="matrix(1.4182543,0,0,-1.540036,150.35975,80.494244)">
		<path id="path272" inkscape:connector-curvature="0" class="st3" d="M0,0c-1.4-2.9-2.8-5.9-4-8.9c-0.9-2.2-2.1-4.3-2.9-6.5
			c-0.7-2.1-1.1-5.4,1.2-6.7c0.1-0.1,0.3-0.1,0.4-0.1s0.9,0.4,1,0.4c0.9,0.7,1.6,1.6,2.4,2.4c0.2,0.2,0.6,0.4,0.8,0.1
			c0.1-0.2,0-0.4-0.1-0.5C-1.8-21-2.7-22-3.7-22.9c-0.7-0.6-1.6-1-2.5-0.9s-1.6,0.9-1.9,1.7c-1.3,3.1,0.3,6.6,1.3,9.6
			c1.7,4.5,3.9,8.7,6,12.9C-0.5,0.9,0.2,0.5,0,0"/>
	</g>
	<g id="g274" transform="matrix(1.4182543,0,0,-1.540036,166.46332,85.412811)">
		<path id="path276" inkscape:connector-curvature="0" class="st4" d="M0,0c0.3-0.9-0.2-1.8-1.1-2.1s-1.5,0.3-1.8,1.2
			c-0.3,0.9,0.1,1.8,1,2.1C-0.9,1.4-0.3,0.9,0,0"/>
	</g>
	<g id="g278" transform="matrix(1.4182543,0,0,-1.540036,137.60795,87.646945)">
		<path id="path280" inkscape:connector-curvature="0" class="st4" d="M0,0c-0.6-0.7-1.8-0.7-2.5-0.1s-0.4,1.3,0.2,2S-0.6,2.7,0.1,2
			C0.9,1.4,0.6,0.7,0,0"/>
	</g>
	<g id="g282" transform="matrix(1.4182543,0,0,-1.540036,172.16258,77.550311)">
		<path id="path284" inkscape:connector-curvature="0" class="st1" d="M2.1,0.5C1,0.9,0,1.3-1,1.9c-1,0.5-2.7-0.2-2.9,1
			C-4,3.3-3.8,4-3.3,4.2c1.3,0.5,3.6,0.7,4.7,0c1.1-0.6,1.9-1.6,2.8-2.4c3.7,0.6,0.5-2.1-0.6-1.7"/>
	</g>
	<g id="g286" transform="matrix(1.4182543,0,0,-1.540036,134.85171,70.614914)">
		<path id="path288" inkscape:connector-curvature="0" class="st1" d="M0,0c1.5,0.4,3.2,0.7,4.7,0.5c1.6-0.2,1.6-2.8,0-3
			C3.2-2.8-2.6-2.4-4.2-2.1C-5.3-1.8-1.2-0.3,0,0"/>
	</g>
	<g id="g290" transform="matrix(1.4182543,0,0,-1.540036,155.40122,133.58346)">
		<path id="path292" inkscape:connector-curvature="0" class="st5" d="M0,0c2,1.1,3.4,3.2,3.5,5.3c0,0.3,0,0.6-0.1,0.9
			c-0.5,1-1.7,1.3-2.7,1.2s-2-0.6-3-0.9c-1.2-0.3-2.5-0.3-3.6,0C-6.7,6.7-7.3,7-8,7.1s-1.5,0-2-0.5s-0.6-1.2-0.6-1.9
			C-10.5-0.6-4.5-2.5,0,0"/>
	</g>
	<g id="g294" transform="matrix(1.4182543,0,0,-1.540036,174.09197,100.63283)">
		<path id="path296" inkscape:connector-curvature="0" class="st6" d="M0,0c-0.2-1.1-2.1-1.7-4.3-1.3S-8.2,0.2-8,1.3
			c0.2,1.1,3.1,1.5,5.3,1.1C-0.5,2.1,0.2,1.1,0,0"/>
	</g>
	<g id="g298" transform="matrix(1.4182543,0,0,-1.540036,123.27095,98.958194)">
		<path id="path300" inkscape:connector-curvature="0" class="st6" d="M0,0c0.2,1.1,2.1,1.7,4.3,1.4C6.5,1,8.2-0.1,8-1.2
			c-0.1-1-3.1-1.5-5.3-1.2S-0.2-1.1,0,0"/>
	</g>
	<g id="g302" transform="matrix(1.4182543,0,0,-1.540036,137.22005,39.577178)">
		<path id="path304" inkscape:connector-curvature="0" class="st7" d="M0,0c3,2.6,5.6,5.6,9,7.6c3.7,2.2,7.8,2.9,11.8,4
			c0.2,0.1,0.1,0.3-0.1,0.3c-9-1.3-14.8-5.3-21.1-11.6C-0.6,0.1-0.2-0.2,0,0"/>
	</g>
	<g id="g306" transform="matrix(1.4182543,0,0,-1.540036,149.72536,41.142159)">
		<path id="path308" inkscape:connector-curvature="0" class="st7" d="M0,0c7.5,7,15.8,10.6,25.8,12.6c0.1,0,0.1,0.3,0,0.3
			C15.9,12.4,6.4,7.4-0.3,0.3C-0.5,0.1-0.2-0.2,0,0"/>
	</g>
	<g id="g310" transform="matrix(1.4182543,0,0,-1.540036,164.5118,45.308734)">
		<path id="path312" inkscape:connector-curvature="0" class="st7" d="M0,0c6.6,5.1,13.6,7.9,21.4,10.5c0.2,0.1,0.1,0.4-0.1,0.4
			C13.3,9.6,5.8,5.3-0.3,0.3C-0.5,0.1-0.2-0.2,0,0"/>
	</g>
	<g id="g314" transform="matrix(1.4182543,0,0,-1.540036,187.2426,43.760536)">
		<path id="path316" inkscape:connector-curvature="0" class="st7" d="M0,0c3.1,1.5,6.8,3.6,8.8,6.6C8.9,6.8,8.6,7.1,8.4,7
			C7,5.9,5.8,4.6,4.5,3.5C3,2.4,1.4,1.4-0.3,0.5C-0.6,0.3-0.3-0.2,0,0"/>
	</g>
	<g id="g318" transform="matrix(1.4182543,0,0,-1.540036,199.89059,52.736782)">
		<path id="path320" inkscape:connector-curvature="0" class="st7" d="M0,0c2.3,1.4,4.9,4,5.2,6.9c0,0.3-0.4,0.4-0.5,0.1
			C4.1,5.9,3.7,4.7,3,3.6C2.1,2.4,1,1.3-0.3,0.4C-0.5,0.3-0.3-0.2,0,0"/>
	</g>
	<g id="g322" transform="matrix(1.4182543,0,0,-1.540036,205.99291,64.872732)">
		<path id="path324" inkscape:connector-curvature="0" class="st7" d="M0,0c1.8,2,4,4.6,4.5,7.3c0,0.2-0.3,0.4-0.4,0.2
			C3.4,6.4,2.9,5.1,2.2,4C1.5,2.7,0.6,1.5-0.4,0.4C-0.6,0.1-0.2-0.3,0,0"/>
	</g>
	<g id="g326" transform="matrix(1.4182543,0,0,-1.540036,212.4569,79.240658)">
		<path id="path328" inkscape:connector-curvature="0" class="st7" d="M0,0c1.4,2,2.7,4.5,2.9,7c0,0.2-0.4,0.3-0.4,0.1
			C1.8,4.6,1.1,2.4-0.4,0.2C-0.6,0-0.2-0.2,0,0"/>
	</g>
	<g id="g362" transform="matrix(1.4182543,0,0,-1.540036,202.89332,109.56165)">
		<path id="path364_00000065045441714698293940000000667595659555567002_" inkscape:connector-curvature="0" class="st7" d="M0,0"/>
		<path id="path364_00000090269929353550282040000003797534114478480031_" inkscape:connector-curvature="0" class="st7" d="M0,0
			c0.4-0.5,0.7-1,0.9-1.6C1-2.2,0.9-2.8,1-3.4c0.1-0.3,0.4-0.3,0.6-0.1"/>
	</g>
	<g id="g434" transform="matrix(1.4182543,0,0,-1.540036,98.549789,177.71057)">
		<path id="path436_00000157302903060161176610000007131997829326235309_" inkscape:connector-curvature="0" class="st7" d="M0,0"/>
	</g>
	<g id="g490" transform="matrix(1.4182543,0,0,-1.540036,212.37095,107.95694)">
		<path id="path492" inkscape:connector-curvature="0" class="st7" d="M0,0c0.9,0.3,1.6,0.7,2.2,1.4c0.5,0.5,1.3,1.3,1.1,2
			c0,0.1-0.2,0.2-0.3,0.2C2.5,3.3,2.1,2.5,1.7,2C1.1,1.4,0.5,0.9-0.2,0.5C-0.4,0.3-0.3-0.1,0,0"/>
	</g>
	<g id="g494" transform="matrix(1.4182543,0,0,-1.540036,209.30865,21.104288)">
		<path id="path496" inkscape:connector-curvature="0" class="st7" d="M0,0c0.9,0.7,1.9,1.3,2.9,1.8C4.1,2.3,5.3,2.5,6.5,3
			c0.3,0.1,0.3,0.6-0.1,0.6C4,3.7,1.3,2-0.3,0.4C-0.5,0.2-0.2-0.2,0,0"/>
	</g>
	<g id="g498" transform="matrix(1.4182543,0,0,-1.540036,209.82249,24.650683)">
		<path id="path500" inkscape:connector-curvature="0" class="st7" d="M0,0c3.1,0.2,7,0.5,9.6,2.3c0.2,0.1,0.1,0.4-0.2,0.4
			C7.9,2.5,6.5,1.9,5.1,1.5C3.4,1.1,1.7,0.8,0,0.7C-0.4,0.6-0.4,0,0,0"/>
	</g>
	<g id="g502" transform="matrix(1.4182543,0,0,-1.540036,210.97624,29.300059)">
		<path id="path504" inkscape:connector-curvature="0" class="st7" d="M0,0c4.4-0.7,9.4-0.7,13.5,1.3c0.3,0.2,0.1,0.6-0.2,0.5
			C8.8,0.9,4.8,0,0.2,0.7C-0.3,0.8-0.5,0.1,0,0"/>
	</g>
	<g id="g506" transform="matrix(1.4182543,0,0,-1.540036,221.76419,204.91839)">
		<path id="path508" inkscape:connector-curvature="0" class="st0" d="M0,0l-19.2-8.5l6.8-20.7l23.9-0.2C11.5-29.4,5.9-10.5,0,0"/>
	</g>
	<g id="g1096" transform="matrix(1.4182543,0,0,-1.540036,-204.47667,535.8441)">
		<g id="g1098">
		</g>
		<g id="g1110">
			<g>
				<g>
					<defs>
						<rect id="SVGID_1_" x="212.1" y="273.3" width="3.3" height="2.6"/>
					</defs>
					<clipPath id="SVGID_00000144326634516839680210000006571806412465435017_">
						<use xlink:href="#SVGID_1_"  style="overflow:visible;"/>
					</clipPath>
				</g>
			</g>
		</g>
	</g>
	<g id="g1112" transform="matrix(1.4182543,0,0,-1.540036,-204.47667,535.8441)">
		<g id="g1114">
		</g>
		<g id="g1126">
			<g>
				<g>
					<defs>
						<rect id="SVGID_00000143596815646197357410000016627584649471364539_" x="207.9" y="267.8" width="2.1" height="2.6"/>
					</defs>
					<clipPath id="SVGID_00000181793004706737737190000007296523843056579723_">
						<use xlink:href="#SVGID_00000143596815646197357410000016627584649471364539_"  style="overflow:visible;"/>
					</clipPath>
				</g>
			</g>
		</g>
	</g>
	<g id="g1208" transform="matrix(1.4182543,0,0,-1.540036,-204.47667,535.8441)">
		<g id="g1210">
		</g>
		<g id="g1222">
			<g>
				<g>
					<defs>
						<rect id="SVGID_00000106127590480193541610000008010199358088263604_" x="283.5" y="288.4" width="2" height="2.5"/>
					</defs>
					<clipPath id="SVGID_00000176001073262461910330000017419016579665581994_">
						<use xlink:href="#SVGID_00000106127590480193541610000008010199358088263604_"  style="overflow:visible;"/>
					</clipPath>
					<g id="g1220" style="opacity:0.22;clip-path:url(#SVGID_00000176001073262461910330000017419016579665581994_);">
						<g id="g1218" transform="translate(284.5391,289.0283)">
							<path id="path1216" inkscape:connector-curvature="0" class="st4" d="M0,0c0.6,0,0.6,1,0,1S-0.6,0,0,0"/>
						</g>
					</g>
				</g>
			</g>
		</g>
	</g>
	<g id="g1224" transform="matrix(1.4182543,0,0,-1.540036,-204.47667,535.8441)">
		<g id="g1226">
		</g>
		<g id="g1238">
			<g>
				<g>
					<defs>
						<rect id="SVGID_00000176010800216438224610000000545039672183913894_" x="281.2" y="293.8" width="2" height="2.5"/>
					</defs>
					<clipPath id="SVGID_00000000182833228022621160000005017532047519653285_">
						<use xlink:href="#SVGID_00000176010800216438224610000000545039672183913894_"  style="overflow:visible;"/>
					</clipPath>
					<g id="g1236" style="opacity:0.22;clip-path:url(#SVGID_00000000182833228022621160000005017532047519653285_);">
						<g id="g1234" transform="translate(282.166,294.4399)">
							<path id="path1232" inkscape:connector-curvature="0" class="st4" d="M0,0c0.7,0,0.7,1,0,1S-0.7,0,0,0"/>
						</g>
					</g>
				</g>
			</g>
		</g>
	</g>
	<g id="g1240" transform="matrix(1.4182543,0,0,-1.540036,-204.47667,535.8441)">
		<g id="g1242">
		</g>
		<g id="g1254">
			<g>
				<g>
					<defs>
						<rect id="SVGID_00000065058115422847178920000000889101468338268048_" x="296.4" y="200.5" width="2.1" height="2.5"/>
					</defs>
					<clipPath id="SVGID_00000086686106331897125110000003211234876395123102_">
						<use xlink:href="#SVGID_00000065058115422847178920000000889101468338268048_"  style="overflow:visible;"/>
					</clipPath>
					<g id="g1252" style="opacity:0.22;clip-path:url(#SVGID_00000086686106331897125110000003211234876395123102_);">
						<g id="g1250" transform="translate(297.4189,201.2119)">
							<path id="path1248" inkscape:connector-curvature="0" class="st4" d="M0,0c0.7,0,0.7,1.1,0,1.1S-0.7,0,0,0"/>
						</g>
					</g>
				</g>
			</g>
		</g>
	</g>
	<g id="g1256" transform="matrix(1.4182543,0,0,-1.540036,-204.47667,535.8441)">
		<g id="g1258">
		</g>
		<g id="g1270">
			<g>
				<g>
					<defs>
						<rect id="SVGID_00000005251683778962569150000011669961859982153878_" x="301.2" y="195.9" width="1.8" height="2.3"/>
					</defs>
					<clipPath id="SVGID_00000031930118166929803850000001751216419454436750_">
						<use xlink:href="#SVGID_00000005251683778962569150000011669961859982153878_"  style="overflow:visible;"/>
					</clipPath>
					<g id="g1268" style="opacity:0.22;clip-path:url(#SVGID_00000031930118166929803850000001751216419454436750_);">
						<g id="g1266" transform="translate(302.1641,196.5127)">
							<path id="path1264" inkscape:connector-curvature="0" class="st4" d="M0,0c0.6,0,0.6,1,0,1S-0.6,0,0,0"/>
						</g>
					</g>
				</g>
			</g>
		</g>
	</g>
	<g id="g1272" transform="matrix(1.4182543,0,0,-1.540036,-204.47667,535.8441)">
		<g id="g1274">
		</g>
		<g id="g1286">
			<g>
				<g>
					<defs>
						<rect id="SVGID_00000118381064781674771520000006161982994368398758_" x="300.1" y="205.4" width="0.1" height="0.2"/>
					</defs>
					<clipPath id="SVGID_00000108287592885153760740000005425027465412827816_">
						<use xlink:href="#SVGID_00000118381064781674771520000006161982994368398758_"  style="overflow:visible;"/>
					</clipPath>
					<g id="g1284" style="opacity:0.22;clip-path:url(#SVGID_00000108287592885153760740000005425027465412827816_);">
						<g id="g1282" transform="translate(300.1299,205.4482)">
							<path id="path1280" inkscape:connector-curvature="0" class="st4" d="M0,0L0,0L0,0"/>
						</g>
					</g>
				</g>
			</g>
		</g>
	</g>
</g>
<polygon class="st13" points="128.7,166 109.1,172.5 103.4,177.7 105.6,182.9 129,182.9 143.3,182.9 160.3,182.9 186.6,187.4 
	198.4,180.2 191,172.5 160.3,168.7 148.4,172.5 139.5,171.8 "/>
</svg>
